<svg width="210" height="39" xmlns="http://www.w3.org/2000/svg" xmlns:xlink="http://www.w3.org/1999/xlink"><defs><path id="a" d="M0 0h38.036v38.028H0z"/></defs><g fill="none" fill-rule="evenodd"><path d="M110.083 19.68v-1.272h-6.576v-5.135h-1.274v13.692a3.544 3.544 0 003.543 3.545h10.764v-1.468h-11.135c-1.026 0-1.898-.699-1.898-1.856V19.68h6.576zm31.575 10.83v-3.015h-13.533c-.509 0-.854-.303-.854-.819v-9.71c0-.51.304-.854.82-.854h10.71v4.467h2.857v-7.308h-13.433a4.046 4.046 0 00-3.807 4.04v9.152a4.048 4.048 0 004.048 4.047h13.192zm-56.94-17.237v13.692a3.546 3.546 0 003.543 3.545h10.766v-1.468H87.892c-1.028 0-1.899-.699-1.899-1.856V13.273h-1.275zm-4.672 0v15.961h-9.493c-1.028 0-1.897-.698-1.897-1.856V13.273h-1.45v13.692a3.543 3.543 0 003.544 3.545h10.762V13.273h-1.466zM54.02 30.51h1.466V16.442c0-1.028.7-1.895 1.856-1.895h3.31c1.026 0 1.896.697 1.896 1.856V30.51H64V16.813a3.545 3.545 0 00-3.545-3.542h-2.89a3.539 3.539 0 00-2.812 1.387 3.535 3.535 0 00-2.81-1.387H49.05a3.542 3.542 0 00-3.543 3.542V30.51h1.466V16.442c0-1.028.697-1.895 1.856-1.895h3.308c1.026 0 1.898.697 1.898 1.856v.08c-.01.11-.016.221-.016.33V30.51zm65.727 0h1.466V13.273h-1.466V30.51zm0-19.788h1.466V7.863h-1.466v2.86zm68.874 2.56h-3.016v3.588c0 .51-.303.854-.818.854h-9.71c-.513 0-.856-.303-.856-.819v-3.624h-2.84v3.49a4.047 4.047 0 004.04 3.806h9.153a4.048 4.048 0 004.047-4.047v-3.249zM171.38 30.51h3.014v-5.15c0-.509.304-.853.82-.853h9.708c.514 0 .858.301.858.817v5.186h2.84v-5.052a4.047 4.047 0 00-4.039-3.806h-9.156a4.047 4.047 0 00-4.045 4.047v4.811zm-12.322-13.05v13.05h3.046V17.316a4.045 4.045 0 00-4.047-4.045h-9.153a4.046 4.046 0 00-4.039 3.805v9.395a4.047 4.047 0 003.806 4.04h9.091v-2.85l-9.225.008c-.063 0-.125-.004-.183-.014-.404-.074-.638-.393-.638-.842V25.32l-.01-8.377c0-.516.344-.819.854-.819h9.71c.514 0 .82.342.82.854l-.032.482zm46.961 0v13.05h3.046V17.316a4.044 4.044 0 00-4.046-4.045h-9.154a4.045 4.045 0 00-4.037 3.805v9.395a4.047 4.047 0 003.805 4.04h9.091v-2.85l-9.228.008a1.05 1.05 0 01-.18-.014c-.404-.074-.637-.393-.637-.842V25.32l-.012-8.377c0-.516.343-.819.854-.819h9.71c.517 0 .821.342.821.854l-.033.482zm-40.709-6.738h2.861V7.863h-2.86v2.86zm.001 19.788h2.861V13.281h-2.86v17.23z" fill="#FFF"/><mask id="b" fill="#fff"><use xlink:href="#a"/></mask><path d="M13.34 19.014a5.677 5.677 0 1011.355 0 5.677 5.677 0 00-11.355 0m-8.895-1.437c-.569-.577-1.002-1.286-1.207-2.05l-1.153-4.303c-.522-1.949.634-3.528 2.583-3.528h5.064c.006-.81.201-1.619.597-2.306l2.227-3.856C13.564-.213 15.5-.513 16.876.866l3.582 3.58c.577-.569 1.286-1.002 2.051-1.208l4.302-1.153c1.95-.522 3.53.634 3.53 2.583v5.064c.81.007 1.617.2 2.303.597l3.857 2.227c1.748 1.008 2.047 2.943.67 4.321l-3.495 3.493c.585.585 1.031 1.306 1.24 2.085l1.154 4.303c.521 1.948-.636 3.527-2.584 3.527h-4.94c0 .827-.195 1.652-.598 2.352l-2.227 3.857c-1.009 1.747-2.943 2.046-4.32.668l-3.495-3.494c-.584.585-1.304 1.031-2.084 1.24l-4.303 1.153c-1.948.522-3.527-.634-3.527-2.583v-5.18c-.909.043-1.832-.148-2.602-.592L1.533 25.48c-1.747-1.008-2.046-2.944-.668-4.32l3.58-3.582" fill="#FF7C00" mask="url(#b)"/><path d="M11.737 11.76H4.74l-.182-.706c-.122-.46.113-.728.568-.728h5.153l1.458 1.434zm7.286-.551a7.865 7.865 0 00-3.391.79l-3.476-3.476c-.325-.325-.356-.788-.12-1.195l1.488-2.554 5.503 5.502-.004.933zm.016-2.47l-4.94-4.954.363-.62c.238-.41.596-.435.917-.113l3.644 3.643.016 2.045zm5.542 4.764a7.846 7.846 0 00-2.956-1.84V6.747c0-.457.306-.81.76-.928l2.858-.755v7.78l-.662.659zm1.758-1.735V4.772l.706-.183c.458-.121.729.113.729.568v5.153l-1.435 1.458zm.55 7.287a7.887 7.887 0 00-.79-3.392l3.477-3.476c.324-.324.788-.356 1.194-.12l2.555 1.489-5.503 5.502-.933-.003zm2.47.016l4.955-4.938.62.36c.409.239.435.596.113.917l-3.643 3.645-2.045.016zm-4.763 5.54a7.863 7.863 0 001.84-2.955h4.915c.458 0 .809.306.929.76l.754 2.859h-7.781l-.657-.663zm1.735 1.759l6.995.01.184.696c.12.458-.115.728-.568.728h-5.154L26.33 26.37zm-7.287.55a7.873 7.873 0 003.392-.79l3.475 3.477c.324.323.357.789.119 1.195l-1.487 2.554-5.503-5.502.004-.933zm-.016 2.47l4.938 4.955-.361.62c-.24.41-.595.436-.917.115l-3.644-3.645-.016-2.045zm-5.541-4.762a7.848 7.848 0 002.956 1.839v4.916c0 .458-.307.809-.761.93l-2.86.753v-7.781l.665-.657zm-1.758 1.734v6.996l-.707.183c-.457.12-.728-.113-.728-.57V27.82l1.435-1.458zm-.552-7.287a7.873 7.873 0 00.79 3.392L8.49 25.943c-.323.324-.788.356-1.194.119l-2.555-1.488 5.503-5.502.932.003zm-2.468-.016l-4.955 4.94-.621-.363c-.41-.24-.435-.595-.113-.917l3.643-3.644 2.046-.016zm4.762-5.542a7.878 7.878 0 00-1.84 2.957H6.716c-.458 0-.81-.305-.93-.761l-.754-2.857h7.782l.657.66z" fill="#F00041"/></g></svg>